<?xml version="1.0" encoding="iso-8859-1"?>
<!-- Generator: Adobe Illustrator 16.0.0, SVG Export Plug-In . SVG Version: 6.00 Build 0)  -->
<!DOCTYPE svg PUBLIC "-//W3C//DTD SVG 1.1//EN" "http://www.w3.org/Graphics/SVG/1.1/DTD/svg11.dtd">
<svg version="1.1" id="Capa_1" xmlns="http://www.w3.org/2000/svg" xmlns:xlink="http://www.w3.org/1999/xlink" x="0px" y="0px"
	 width="755.962px" height="755.962px" viewBox="0 0 755.962 755.962" style="enable-background:new 0 0 755.962 755.962;"
	 xml:space="preserve">
<g>
	<path d="M569.673,179.545l-44.228,115.603c-1.53,3.989-4.196,7.431-7.683,9.89l-96.303,67.189v184.365
		c-0.055,6.153,0.087,25.431,6.918,37.89c6.841,12.459,67.549,129.995,67.549,129.995c5.476,10.558,1.366,23.573-9.19,29.06
		c-3.17,1.65-6.568,2.426-9.912,2.426c-7.792,0-15.301-4.229-19.147-11.617l-75.439-145.219c-1.268,0.109-2.558,0.196-3.857,0.196
		c-1.301,0-2.591-0.087-3.858-0.196l-75.44,145.219c-3.847,7.388-11.355,11.617-19.147,11.617c-3.344,0-6.743-0.775-9.912-2.426
		c-10.557-5.486-14.666-18.502-9.191-29.06c0,0,60.708-117.536,67.549-129.995s6.973-31.736,6.918-37.89V372.227l-96.303-67.189
		c-3.486-2.459-6.153-5.901-7.683-9.89l-44.228-115.603c-4.262-11.114,1.301-23.573,12.415-27.824
		c11.136-4.24,23.573,1.312,27.824,12.426l41.889,109.504l80.872,57.189c0.229-0.011,0.448-0.066,0.677-0.066l27.617,0.229
		l27.616-0.229c0.229,0,0.448,0.055,0.678,0.065l80.871-57.189l41.889-109.504c4.252-11.114,16.688-16.666,27.824-12.426
		C568.373,155.973,573.936,168.431,569.673,179.545z M438.192,241.172c0,33.846-27.431,61.276-61.276,61.276
		s-61.288-27.431-61.288-61.276c0-33.846,27.453-61.288,61.288-61.288S438.192,207.326,438.192,241.172L438.192,241.172z
		 M669.965,77.21c4.83,0,8.731,3.912,8.71,8.732c0,4.83-3.912,8.743-8.732,8.743h-8.731v40.742c0,5.945-4.809,10.775-10.765,10.775
		h-12.065c-5.956,0-10.775-4.83-10.775-10.775v25.693c0,5.945-4.819,10.765-10.775,10.765h-12.076
		c-5.956,0-10.765-4.819-10.765-10.764V94.685H160.573v66.435c0,5.945-4.83,10.765-10.775,10.765h-12.087
		c-5.945,0-10.765-4.819-10.765-10.764v-25.693c0,5.945-4.831,10.775-10.776,10.775h-12.087c-5.945,0-10.765-4.83-10.765-10.775
		V94.685h-7.3c-4.819,0-8.732-3.913-8.732-8.743c0-4.82,3.913-8.732,8.732-8.732h7.3V36.469c0-5.956,4.82-10.776,10.765-10.776
		h12.087c5.945,0,10.776,4.82,10.776,10.776V10.775C126.946,4.83,131.766,0,137.711,0h12.087c5.945,0,10.775,4.83,10.775,10.775
		V77.21h433.438V10.775C594.011,4.83,598.82,0,604.776,0h12.076c5.956,0,10.775,4.83,10.775,10.775v25.693
		c0-5.956,4.819-10.776,10.776-10.776h12.064c5.956,0,10.765,4.82,10.765,10.776V77.21H669.965L669.965,77.21z"/>
</g>
<g>
</g>
<g>
</g>
<g>
</g>
<g>
</g>
<g>
</g>
<g>
</g>
<g>
</g>
<g>
</g>
<g>
</g>
<g>
</g>
<g>
</g>
<g>
</g>
<g>
</g>
<g>
</g>
<g>
</g>
</svg>
