<svg height="469pt" viewBox="-26 0 469 469.864" width="469pt" xmlns="http://www.w3.org/2000/svg"><path d="m354.167969 154.382812 15.953125 1.167969c.34375-4.628906.726562-9.183593 1.160156-13.710937 1.03125-11.398438 2.304688-22.265625 3.789062-32.304688 3.429688-24.433594 8.394532-48.628906 14.867188-72.4375l-15.425781-4.257812c-6.652344 24.453125-11.753907 49.304687-15.273438 74.398437-1.527343 10.304688-2.839843 21.464844-3.886719 33.128907-.4375 4.582031-.832031 9.253906-1.183593 14.015624zm0 0"/><path d="m1.480469 440.375 15.136719 5.183594c1.640624-4.796875 3.4375-10.175782 5.367187-16.117188l-15.199219-4.945312c-1.914062 5.855468-3.6875 11.175781-5.304687 15.878906zm0 0"/><path d="m38.574219 373.230469c2.65625-10.140625 5.3125-20.847657 7.898437-31.910157 1.851563-8.097656 3.621094-16.363281 5.3125-24.800781l-15.6875-3.121093c-1.648437 8.265624-3.402344 16.394531-5.210937 24.304687-2.550781 10.890625-5.175781 21.449219-7.789063 31.441406-3.464844 13.023438-7.273437 26.3125-11.320312 39.472657l15.292968 4.703124c4.105469-13.359374 7.96875-26.832031 11.503907-40.089843zm0 0"/><path d="m200.433594 290.96875h16v16h-16zm0 0"/><path d="m408.433594 266.96875c4.417968 0 8-3.582031 8-8v-48c0-4.417969-3.582032-8-8-8h-72c0-20.9375.957031-41.488281 2.847656-61.128906 1.03125-11.398438 2.304688-22.265625 3.789062-32.304688 4.566407-35.316406 12.878907-70.050781 24.800782-103.605468l-14.863282-5.929688c-12.464843 34.6875-21.101562 70.636719-25.761718 107.199219-1.527344 10.304687-2.839844 21.464843-3.886719 33.128906-1.945313 20.128906-2.925781 41.183594-2.925781 62.640625h-16v-16c0-3.03125-1.714844-5.800781-4.425782-7.15625-2.707031-1.355469-5.953124-1.0625-8.375.753906l-64 48c-2.015624 1.511719-3.199218 3.882813-3.199218 6.402344 0 2.515625 1.183594 4.886719 3.199218 6.398438l64 48c1.382813 1.039062 3.066407 1.601562 4.800782 1.601562 4.417968 0 8-3.582031 8-8v-16h20.511718c2.679688 20.933594 6.671876 43.503906 11.933594 67.351562-41.34375 14.074219-84.773437 21.054688-128.445312 20.648438-43.675782.40625-87.101563-6.574219-128.449219-20.648438 5.246094-23.832031 9.246094-46.398437 11.9375-67.351562h20.511719v16c0 3.03125 1.710937 5.800781 4.421875 7.15625 2.710937 1.355469 5.953125 1.0625 8.375-.757812l64-48c2.015625-1.511719 3.203125-3.882813 3.203125-6.398438 0-2.519531-1.1875-4.890625-3.203125-6.402344l-64-48c-2.421875-1.816406-5.664063-2.109375-8.375-.753906-2.710938 1.355469-4.421875 4.125-4.421875 7.15625v16h-16c0-21.457031-.984375-42.511719-2.914063-62.5625-1.054687-11.710938-2.398437-22.871094-3.886719-33.132812-4.660156-36.589844-13.300781-72.5625-25.769531-107.273438l-14.863281 5.929688c11.921875 33.570312 20.234375 68.316406 24.800781 103.644531 1.480469 10 2.75 20.867187 3.792969 32.3125 1.878906 19.59375 2.839844 40.144531 2.839844 61.082031h-72c-4.417969 0-8 3.582031-8 8v48c0 4.417969 3.582031 8 8 8h67.351562c-2.890625 21.933594-7.152344 45.597656-12.898437 70.742188-1.277344 5.441406-2.566407 10.808593-3.871094 16.066406-1.304687 5.253906-2.609375 10.398437-3.917969 15.375-14.496094 54.480468-29.96875 94.519531-30.128906 94.917968l14.917969 5.792969c.152343-.382812 14.402343-37.207031 28.441406-88.359375 45.246094 14.632813 92.554687 21.878906 140.105469 21.464844 47.550781.414062 94.855468-6.832031 140.101562-21.464844 14.058594 51.136719 28.289063 88 28.441406 88.359375l14.917969-5.792969c-.160156-.398437-15.628906-40.4375-30.117187-94.886718-2.625-10.023438-5.25-20.582032-7.800782-31.472656-5.746093-25.144532-10.015624-48.800782-12.898437-70.734376zm-392-48h104c4.417968 0 8-3.582031 8-8v-8l42.664062 32-42.664062 32v-8c0-4.417969-3.582032-8-8-8h-104zm192 168c-46.164063.457031-92.09375-6.585938-136-20.847656.308594-1.21875.613281-2.496094.925781-3.730469.730469-2.902344 1.457031-5.832031 2.183594-8.796875.289062-1.160156.578125-2.28125.855469-3.449219 42.558593 14.195313 87.175781 21.230469 132.035156 20.824219 44.863281.417969 89.488281-6.609375 132.054687-20.800781.28125 1.144531.558594 2.238281.839844 3.382812.734375 3.007813 1.472656 5.984375 2.214844 8.921875.304687 1.214844.601562 2.480469.914062 3.6875-43.917969 14.253906-89.855469 21.28125-136.023437 20.808594zm88-136c-4.417969 0-8 3.582031-8 8v8l-42.664063-32 42.664063-32v8c0 4.417969 3.582031 8 8 8h104v32zm0 0"/></svg>